OpenSim_Sub03_CSStiffKnee_LCS.mot
version=1
nRows=41
nColumns=11
inDegrees=no
endheader
time	Bot_Shank	2nd_Bot_Shank	2nd_Top_Shank	Top_Shank	Bot_Thigh	Med_Thigh	Top_Thigh	BNOx	BNOy	BNOZ
18.18000000	1297.39637516	1264.30552015	1155.71384936	999.69169250	1140.06388956	960.83598564	972.69094812	193.43344897	-64.11830509	-111.22162264
18.19000000	1295.99507855	1263.35891340	1152.66439896	999.59507029	1140.11579248	960.68983662	972.40072312	195.40253778	-65.67359549	-110.77950431
18.20000000	1294.49078537	1262.58334390	1149.37995625	999.57942812	1140.16135113	960.53275121	972.05937469	197.39694893	-67.24168068	-110.82546670
18.21000000	1292.98074148	1261.93580331	1146.16949854	999.62533852	1140.19035919	960.37640016	971.67287749	199.40054069	-68.80280947	-111.76946979
18.22000000	1291.56219278	1261.37328331	1143.34200315	999.71337399	1140.19261030	960.23245422	971.24720617	201.39717133	-70.33723069	-114.02147361
18.23000000	1290.33238513	1260.85277559	1141.20644739	999.82410706	1140.15789813	960.11258414	970.78833539	203.37069914	-71.82519316	-117.99143818
18.24000000	1289.38856441	1260.33127183	1140.07180858	999.93811026	1140.07601633	960.02846067	970.30223980	205.30498239	-73.24694572	-124.08932349
18.25000000	1288.82544994	1259.76636209	1140.23186752	1000.03604834	1139.93705772	959.99133946	969.79514012	207.18462108	-74.58269866	-132.68571604
18.26000000	1288.63954043	1259.13889953	1141.38964008	1000.10217227	1139.74274425	959.99633851	969.28282239	209.02304960	-75.81116487	-142.62055653
18.27000000	1288.69974259	1258.45995681	1142.48071762	1000.12539159	1139.50990461	960.01761251	968.79349834	210.87115920	-76.90911204	-150.74542266
18.28000000	1288.86643594	1257.74262620	1142.38940323	1000.09492721	1139.25637710	960.02791512	968.35621015	212.78234448	-77.85317785	-153.77900647
18.29000000	1289	1257	1140	1000	1139	960	968	214.81000000	-78.62000000	-148.44000000
18.30000000	1288.99139825	1256.24874577	1134.59101155	999.83734049	1138.75918338	959.91543632	967.74538720	216.98909750	-79.19303639	-132.38383467
18.31000000	1288.85392999	1255.51983222	1127.01774366	999.63371769	1138.55462444	959.79105530	967.57879970	219.28091733	-79.58302587	-107.01289936
18.32000000	1288.63147847	1254.84780334	1118.52970264	999.42341025	1138.40759215	959.65250367	967.47814257	221.62831699	-79.80752749	-74.66632231
18.33000000	1288.36792696	1254.26720312	1110.37639480	999.24069682	1138.33935548	959.52542816	967.42132091	223.97415398	-79.88410032	-37.68323175
18.34000000	1288.10715870	1253.81257555	1103.80732645	999.11985604	1138.37118343	959.43547550	967.38623980	226.26128580	-79.83030342	1.59724406
18.35000000	1287.89305695	1253.51846462	1100.07200390	999.09516656	1138.52434496	959.40829242	967.35080433	228.43256996	-79.66369586	40.83597688
18.36000000	1287.76950498	1253.41941432	1100.41993347	999.20090702	1138.82010904	959.46952565	967.29291958	230.43086397	-79.40183670	77.69383848
18.37000000	1287.78038603	1253.54996865	1106.10062145	999.47135607	1139.27974467	959.64482192	967.19049064	232.19902531	-79.06228500	109.83170061
18.38000000	1287.96958337	1253.94467159	1118.36357417	999.94079235	1139.92452080	959.95982796	967.02142261	233.67991150	-78.66259983	134.91043502
18.39000000	1288.36169491	1254.61253477	1137.66798622	1000.61885533	1140.75180470	960.42280675	966.76812571	234.82825334	-78.22166407	151.06780632
18.40000000	1288.87700848	1255.42447096	1160.19843065	1001.38191664	1141.62968446	960.94799641	966.43737757	235.66300168	-77.76552084	159.02098720
18.41000000	1289.40070679	1256.20491630	1180.70087468	1002.06149715	1142.38273980	961.41799140	966.04415654	236.22472036	-77.32262301	160.35523924
18.42000000	1289.81794609	1256.77827192	1193.92020143	1002.48908396	1142.83551770	961.71536234	965.60344716	236.55398952	-76.92142526	156.65647820
18.43000000	1290.01388261	1256.96893897	1194.60129401	1002.49616416	1142.81256510	961.72267982	965.13023396	236.69138928	-76.59038228	149.51061983
18.44000000	1289.87367261	1256.60131858	1177.48903554	1001.91422482	1142.13842894	961.32251445	964.63950148	236.67749978	-76.35794874	140.50357989
18.45000000	1289.28247233	1255.49981187	1137.32830914	1000.57475304	1140.63765619	960.39743686	964.14623425	236.55290114	-76.25257934	131.22127415
18.46000000	1288.14591956	1253.52008554	1069.81162793	998.33721455	1138.16663232	958.85030381	963.66454096	236.35619304	-76.29891366	123.18817661
18.47000000	1286.58109554	1250.84057980	980.41447251	995.34991580	1134.91043150	956.79339867	963.19948825	236.10552963	-76.48220568	117.29446029
18.48000000	1284.82982184	1247.83015395	880.38374936	991.93156381	1131.24803658	954.46255528	962.75080846	235.80700332	-76.76447399	114.05609467
18.49000000	1283.13553226	1244.86012839	781.04095974	988.40306797	1127.56093666	952.09520431	962.31816499	235.46655060	-77.10743686	113.98421273
18.50000000	1281.74166061	1242.30182355	693.70760492	985.08533769	1124.23062083	949.92877648	961.90122122	235.09010800	-77.47281258	117.58994741
18.51000000	1280.89164068	1240.52655986	629.70518616	982.29928236	1121.63857819	948.20070247	961.49964056	234.68361201	-77.82231941	125.38443167
18.52000000	1280.82890628	1239.90565773	600.35520472	980.36581139	1120.16629784	947.14841298	961.11308640	234.25299914	-78.11767562	137.87879848
18.53000000	1281.76606906	1240.76562655	615.63097073	979.56967768	1120.15143099	946.98117402	960.74365335	233.80315872	-78.32345914	155.32993858
18.54000000	1283.59754438	1242.97036382	671.58758796	979.82236837	1121.47906341	947.61749036	960.41853492	233.32816927	-78.43376966	175.37004390
18.55000000	1286.03002892	1246.11085084	756.06916521	980.81516385	1123.76729155	948.80433321	960.17973166	232.81573158	-78.46012318	194.08287492
18.56000000	1288.76779312	1249.77454150	856.81368545	982.23649834	1126.63076109	950.28645673	960.06943546	232.25346398	-78.41426078	207.53217888
18.57000000	1291.51510741	1253.54888972	961.55913166	983.77480609	1129.68411766	951.80861510	960.12983825	231.62898480	-78.30792354	211.78170302
18.58000000	1293.97624223	1257.02134940	1058.04348682	985.11852132	1132.54200694	953.11556247	960.40313193	230.92991237	-78.15285257	202.89519458
